<svg width="237" height="28" viewBox="0 0 237 28" fill="none" xmlns="http://www.w3.org/2000/svg">
<g id="InvisibleWorkplace&#194;&#174;">
<path d="M2.38606 2.61836V21.9641H0.619629V2.61836H2.38606Z" fill="white"/>
<path d="M8.2762 12.8958V21.9641H6.59478V7.45479H8.22897V9.73132H8.38011C8.72017 8.98822 9.24916 8.39312 9.96707 7.946C10.6913 7.49258 11.5855 7.26587 12.6498 7.26587C13.6259 7.26587 14.4823 7.47054 15.2191 7.87987C15.9622 8.28291 16.5385 8.87802 16.9478 9.6652C17.3634 10.4524 17.5712 11.419 17.5712 12.5652V21.9641H15.8898V12.6691C15.8898 11.4789 15.5561 10.5374 14.8885 9.84468C14.2273 9.15196 13.3393 8.8056 12.2247 8.8056C11.4627 8.8056 10.7857 8.96933 10.1938 9.2968C9.60182 9.62426 9.13266 10.0966 8.7863 10.7137C8.44623 11.3246 8.2762 12.0519 8.2762 12.8958Z" fill="white"/>
<path d="M32.1259 7.45479L26.8266 21.9641H25.0318L19.7325 7.45479H21.5556L25.8631 19.7443H25.9953L30.3028 7.45479H32.1259Z" fill="white"/>
<path d="M34.8492 21.9641V7.45479H36.5401V21.9641H34.8492ZM35.7088 4.96101C35.3624 4.96101 35.0664 4.8445 34.8208 4.6115C34.5752 4.3722 34.4524 4.08566 34.4524 3.7519C34.4524 3.41813 34.5752 3.13475 34.8208 2.90174C35.0664 2.66244 35.3624 2.54278 35.7088 2.54278C36.0551 2.54278 36.3511 2.66244 36.5967 2.90174C36.8423 3.13475 36.9651 3.41813 36.9651 3.7519C36.9651 4.08566 36.8423 4.3722 36.5967 4.6115C36.3511 4.8445 36.0551 4.96101 35.7088 4.96101Z" fill="white"/>
<path d="M50.1501 10.6382L48.6103 11.0727C48.4592 10.6382 48.2451 10.2446 47.968 9.89191C47.6909 9.53925 47.3288 9.25901 46.8817 9.0512C46.4409 8.84338 45.893 8.73947 45.2381 8.73947C44.2557 8.73947 43.4496 8.97248 42.8198 9.43849C42.1901 9.9045 41.8752 10.5059 41.8752 11.2427C41.8752 11.8662 42.0893 12.3731 42.5176 12.7635C42.9521 13.1477 43.6196 13.4531 44.5201 13.6798L46.7117 14.2183C47.9271 14.5142 48.8371 14.9834 49.4416 15.6257C50.0525 16.2681 50.3579 17.0741 50.3579 18.044C50.3579 18.8626 50.1312 19.59 49.6778 20.226C49.2243 20.8621 48.5914 21.3627 47.7791 21.728C46.973 22.0869 46.0378 22.2664 44.9736 22.2664C43.5566 22.2664 42.3885 21.9484 41.469 21.3123C40.5496 20.67 39.9608 19.7443 39.7026 18.5352L41.3179 18.1384C41.5257 19.0012 41.9319 19.653 42.5365 20.0938C43.1473 20.5346 43.9502 20.755 44.9452 20.755C46.0599 20.755 46.951 20.5063 47.6185 20.0088C48.286 19.505 48.6198 18.8752 48.6198 18.1195C48.6198 17.5339 48.4246 17.0427 48.0341 16.6459C47.6437 16.2429 47.0517 15.9469 46.2582 15.758L43.8873 15.1912C42.6278 14.8889 41.6957 14.4103 41.0912 13.7554C40.4866 13.1005 40.1844 12.2881 40.1844 11.3183C40.1844 10.5185 40.4016 9.81634 40.8361 9.21178C41.2707 8.60093 41.8689 8.12232 42.6309 7.77596C43.3929 7.42961 44.262 7.25642 45.2381 7.25642C46.5668 7.25642 47.6279 7.5587 48.4214 8.16326C49.2212 8.76152 49.7974 9.58648 50.1501 10.6382Z" fill="white"/>
<path d="M53.4732 21.9641V7.45479H55.1641V21.9641H53.4732ZM54.3328 4.96101C53.9865 4.96101 53.6905 4.8445 53.4449 4.6115C53.1993 4.3722 53.0765 4.08566 53.0765 3.7519C53.0765 3.41813 53.1993 3.13475 53.4449 2.90174C53.6905 2.66244 53.9865 2.54278 54.3328 2.54278C54.6792 2.54278 54.9752 2.66244 55.2208 2.90174C55.4664 3.13475 55.5892 3.41813 55.5892 3.7519C55.5892 4.08566 55.4664 4.3722 55.2208 4.6115C54.9752 4.8445 54.6792 4.96101 54.3328 4.96101Z" fill="white"/>
<path d="M59.3752 21.9641V2.61836H61.066V10.2225H61.2172C61.4061 9.788 61.6769 9.34088 62.0295 8.88117C62.3885 8.42145 62.8576 8.03731 63.437 7.72873C64.0227 7.41386 64.7595 7.25642 65.6474 7.25642C66.8376 7.25642 67.883 7.5713 68.7835 8.20104C69.6841 8.82449 70.3862 9.69983 70.89 10.8271C71.3938 11.948 71.6457 13.2547 71.6457 14.7472C71.6457 16.246 71.3938 17.559 70.89 18.6863C70.3925 19.8135 69.6935 20.692 68.793 21.3218C67.8988 21.9515 66.8597 22.2664 65.6758 22.2664C64.7941 22.2664 64.0573 22.109 63.4654 21.7941C62.8797 21.4792 62.4074 21.0919 62.0484 20.6322C61.6895 20.1662 61.4124 19.7128 61.2172 19.272H61.0093V21.9641H59.3752ZM61.0377 14.7189C61.0377 15.8902 61.2109 16.9293 61.5572 17.8361C61.9099 18.7367 62.4137 19.4451 63.0686 19.9615C63.7298 20.4716 64.5296 20.7267 65.4679 20.7267C66.4314 20.7267 67.247 20.4622 67.9145 19.9332C68.582 19.3979 69.089 18.6768 69.4353 17.77C69.7817 16.8632 69.9549 15.8461 69.9549 14.7189C69.9549 13.6043 69.7817 12.5998 69.4353 11.7056C69.0953 10.8113 68.5915 10.1029 67.9239 9.58018C67.2564 9.0512 66.4377 8.7867 65.4679 8.7867C64.5233 8.7867 63.7204 9.04175 63.0592 9.55184C62.4042 10.0556 61.9036 10.7547 61.5572 11.6489C61.2109 12.5368 61.0377 13.5602 61.0377 14.7189Z" fill="white"/>
<path d="M76.4354 2.61836V21.9641H74.754V2.61836H76.4354Z" fill="white"/>
<path d="M86.1654 22.2664C84.8115 22.2664 83.6401 21.9515 82.6514 21.3218C81.6627 20.6857 80.8976 19.8072 80.356 18.6863C79.8207 17.559 79.5531 16.2618 79.5531 14.7945C79.5531 13.3335 79.8207 12.0362 80.356 10.9026C80.8976 9.76281 81.6438 8.87172 82.5947 8.22938C83.552 7.58074 84.6572 7.25642 85.9104 7.25642C86.6975 7.25642 87.4564 7.40127 88.1869 7.69095C88.9174 7.97433 89.5723 8.41201 90.1517 9.00397C90.7374 9.58963 91.2002 10.3296 91.5403 11.2238C91.8803 12.1118 92.0504 13.1634 92.0504 14.3788V15.2101H80.715V13.7271H90.3312C90.3312 12.795 90.1422 11.9575 89.7644 11.2144C89.3928 10.465 88.8733 9.87301 88.2058 9.43849C87.5445 9.00397 86.7794 8.7867 85.9104 8.7867C84.9909 8.7867 84.1817 9.0323 83.4827 9.52351C82.7837 10.0147 82.2358 10.6633 81.8391 11.4694C81.4486 12.2755 81.2502 13.1571 81.2439 14.1143V15.0023C81.2439 16.1547 81.4423 17.1623 81.8391 18.0251C82.2421 18.8815 82.812 19.5459 83.5488 20.0182C84.2856 20.4905 85.1578 20.7267 86.1654 20.7267C86.8518 20.7267 87.4532 20.6196 87.9696 20.4055C88.4923 20.1914 88.93 19.9048 89.2826 19.5459C89.6416 19.1806 89.9124 18.7808 90.095 18.3462L91.6914 18.8658C91.471 19.4766 91.1089 20.0402 90.6051 20.5566C90.1076 21.073 89.4842 21.4887 88.7348 21.8035C87.9917 22.1121 87.1352 22.2664 86.1654 22.2664Z" fill="white"/>
<path d="M98.9867 21.9641L93.4512 2.61836H97.9193L101.122 16.0603H101.282L104.815 2.61836H108.641L112.164 16.0886H112.334L115.536 2.61836H120.004L114.469 21.9641H110.483L106.799 9.31569H106.648L102.973 21.9641H98.9867Z" fill="white"/>
<path d="M125.96 22.2475C124.493 22.2475 123.224 21.9358 122.154 21.3123C121.089 20.6826 120.267 19.8072 119.688 18.6863C119.109 17.559 118.819 16.2523 118.819 14.7661C118.819 13.2673 119.109 11.9575 119.688 10.8365C120.267 9.70928 121.089 8.83394 122.154 8.21049C123.224 7.58074 124.493 7.26587 125.96 7.26587C127.428 7.26587 128.693 7.58074 129.758 8.21049C130.828 8.83394 131.653 9.70928 132.233 10.8365C132.812 11.9575 133.102 13.2673 133.102 14.7661C133.102 16.2523 132.812 17.559 132.233 18.6863C131.653 19.8072 130.828 20.6826 129.758 21.3123C128.693 21.9358 127.428 22.2475 125.96 22.2475ZM125.979 19.1303C126.647 19.1303 127.204 18.9413 127.651 18.5635C128.098 18.1793 128.435 17.6567 128.662 16.9954C128.895 16.3342 129.011 15.5816 129.011 14.7378C129.011 13.8939 128.895 13.1414 128.662 12.4802C128.435 11.8189 128.098 11.2962 127.651 10.9121C127.204 10.5279 126.647 10.3359 125.979 10.3359C125.305 10.3359 124.739 10.5279 124.279 10.9121C123.826 11.2962 123.482 11.8189 123.249 12.4802C123.023 13.1414 122.909 13.8939 122.909 14.7378C122.909 15.5816 123.023 16.3342 123.249 16.9954C123.482 17.6567 123.826 18.1793 124.279 18.5635C124.739 18.9413 125.305 19.1303 125.979 19.1303Z" fill="white"/>
<path d="M135.133 21.9641V7.45479H139.034V9.98637H139.185C139.45 9.08583 139.894 8.40571 140.517 7.946C141.141 7.47999 141.859 7.24698 142.671 7.24698C142.873 7.24698 143.09 7.25957 143.323 7.28476C143.556 7.30995 143.761 7.34459 143.937 7.38867V10.9593C143.748 10.9026 143.487 10.8523 143.153 10.8082C142.819 10.7641 142.514 10.7421 142.237 10.7421C141.645 10.7421 141.116 10.8712 140.65 11.1294C140.19 11.3813 139.825 11.7339 139.554 12.1873C139.289 12.6407 139.157 13.1634 139.157 13.7554V21.9641H135.133Z" fill="white"/>
<path d="M149.078 17.7889L149.088 12.9619H149.674L154.321 7.45479H158.94L152.696 14.7472H151.742L149.078 17.7889ZM145.432 21.9641V2.61836H149.456V21.9641H145.432ZM154.501 21.9641L150.231 15.6446L152.914 12.8013L159.214 21.9641H154.501Z" fill="white"/>
<path d="M160.329 27.4051V7.45479H164.297V9.89191H164.476C164.652 9.50146 164.908 9.10473 165.241 8.70169C165.581 8.29236 166.022 7.95229 166.564 7.6815C167.112 7.40442 167.792 7.26587 168.604 7.26587C169.662 7.26587 170.638 7.54296 171.532 8.09714C172.427 8.64501 173.141 9.47313 173.677 10.5815C174.212 11.6835 174.48 13.0658 174.48 14.7283C174.48 16.3468 174.218 17.7133 173.696 18.828C173.179 19.9363 172.474 20.777 171.58 21.3501C170.692 21.9169 169.697 22.2003 168.595 22.2003C167.814 22.2003 167.149 22.0712 166.602 21.813C166.06 21.5548 165.616 21.2305 165.27 20.84C164.923 20.4433 164.659 20.0434 164.476 19.6404H164.353V27.4051H160.329ZM164.268 14.7095C164.268 15.5722 164.388 16.3247 164.627 16.9671C164.867 17.6094 165.213 18.1101 165.666 18.469C166.12 18.8217 166.671 18.998 167.319 18.998C167.974 18.998 168.529 18.8185 168.982 18.4596C169.435 18.0943 169.779 17.5905 170.012 16.9482C170.251 16.2996 170.371 15.5533 170.371 14.7095C170.371 13.8719 170.254 13.1351 170.021 12.499C169.788 11.863 169.445 11.3655 168.991 11.0066C168.538 10.6476 167.981 10.4681 167.319 10.4681C166.665 10.4681 166.11 10.6413 165.657 10.9877C165.21 11.334 164.867 11.8252 164.627 12.4613C164.388 13.0973 164.268 13.8467 164.268 14.7095Z" fill="white"/>
<path d="M180.601 2.61836V21.9641H176.577V2.61836H180.601Z" fill="white"/>
<path d="M187.377 22.238C186.451 22.238 185.626 22.0775 184.902 21.7563C184.178 21.4288 183.605 20.9471 183.183 20.311C182.767 19.6687 182.559 18.8689 182.559 17.9117C182.559 17.1056 182.707 16.4287 183.003 15.8808C183.299 15.3329 183.702 14.8921 184.212 14.5583C184.723 14.2246 185.302 13.9727 185.951 13.8026C186.605 13.6326 187.292 13.5129 188.01 13.4437C188.854 13.3555 189.534 13.2736 190.05 13.1981C190.567 13.1162 190.941 12.9965 191.174 12.8391C191.407 12.6817 191.524 12.4487 191.524 12.1401V12.0834C191.524 11.4852 191.335 11.0223 190.957 10.6948C190.585 10.3674 190.056 10.2036 189.37 10.2036C188.646 10.2036 188.07 10.3642 187.641 10.6854C187.213 11.0003 186.93 11.397 186.791 11.8756L183.069 11.5733C183.258 10.6917 183.63 9.92969 184.184 9.28735C184.738 8.63871 185.453 8.14122 186.328 7.79486C187.21 7.4422 188.23 7.26587 189.389 7.26587C190.195 7.26587 190.966 7.36033 191.703 7.54926C192.446 7.73818 193.104 8.03101 193.678 8.42775C194.257 8.82449 194.713 9.33458 195.047 9.95803C195.381 10.5752 195.548 11.3151 195.548 12.1779V21.9641H191.732V19.9521H191.618C191.385 20.4055 191.074 20.8054 190.683 21.1517C190.293 21.4918 189.823 21.7594 189.276 21.9547C188.728 22.1436 188.095 22.238 187.377 22.238ZM188.529 19.4609C189.121 19.4609 189.644 19.3444 190.097 19.1114C190.551 18.8721 190.907 18.5509 191.165 18.1479C191.423 17.7448 191.552 17.2883 191.552 16.7782V15.2384C191.426 15.3203 191.253 15.3959 191.033 15.4651C190.818 15.5281 190.576 15.5879 190.305 15.6446C190.034 15.695 189.764 15.7422 189.493 15.7863C189.222 15.8241 188.976 15.8587 188.756 15.8902C188.284 15.9595 187.871 16.0697 187.519 16.2208C187.166 16.372 186.892 16.5766 186.697 16.8348C186.502 17.0867 186.404 17.4016 186.404 17.7795C186.404 18.3273 186.602 18.7461 186.999 19.0358C187.402 19.3192 187.912 19.4609 188.529 19.4609Z" fill="white"/>
<path d="M204.64 22.2475C203.154 22.2475 201.876 21.9326 200.805 21.3029C199.741 20.6668 198.922 19.7852 198.349 18.658C197.782 17.5307 197.499 16.2334 197.499 14.7661C197.499 13.2799 197.785 11.9764 198.359 10.8554C198.938 9.72817 199.76 8.84968 200.824 8.21993C201.888 7.58389 203.154 7.26587 204.621 7.26587C205.887 7.26587 206.995 7.49573 207.946 7.95544C208.897 8.41516 209.65 9.06064 210.204 9.89191C210.758 10.7232 211.064 11.6993 211.12 12.8202H207.323C207.216 12.096 206.933 11.5135 206.473 11.0727C206.019 10.6256 205.424 10.402 204.687 10.402C204.064 10.402 203.519 10.572 203.053 10.9121C202.594 11.2459 202.235 11.7339 201.976 12.3762C201.718 13.0186 201.589 13.7963 201.589 14.7095C201.589 15.6352 201.715 16.4224 201.967 17.071C202.225 17.7196 202.587 18.214 203.053 18.554C203.519 18.8941 204.064 19.0641 204.687 19.0641C205.147 19.0641 205.56 18.9697 205.925 18.7808C206.296 18.5918 206.602 18.3179 206.841 17.9589C207.087 17.5937 207.247 17.156 207.323 16.6459H211.12C211.057 17.7543 210.755 18.7304 210.213 19.5742C209.678 20.4118 208.938 21.0667 207.994 21.539C207.049 22.0113 205.931 22.2475 204.64 22.2475Z" fill="white"/>
<path d="M219.724 22.2475C218.231 22.2475 216.947 21.9452 215.87 21.3407C214.799 20.7298 213.974 19.8671 213.395 18.7524C212.816 17.6315 212.526 16.3059 212.526 14.7756C212.526 13.2831 212.816 11.9732 213.395 10.846C213.974 9.71873 214.79 8.84023 215.841 8.21049C216.899 7.58074 218.14 7.26587 219.563 7.26587C220.52 7.26587 221.412 7.42016 222.237 7.72873C223.068 8.03101 223.792 8.48758 224.409 9.09843C225.033 9.70928 225.518 10.4776 225.864 11.4033C226.21 12.3227 226.383 13.3996 226.383 14.6339V15.7391H214.132V13.2453H222.596C222.596 12.6659 222.47 12.1527 222.218 11.7056C221.966 11.2585 221.616 10.9089 221.169 10.657C220.728 10.3989 220.215 10.2698 219.629 10.2698C219.019 10.2698 218.477 10.4114 218.005 10.6948C217.539 10.9719 217.173 11.3466 216.909 11.8189C216.644 12.2849 216.509 12.8045 216.503 13.3775V15.7485C216.503 16.4664 216.635 17.0867 216.899 17.6094C217.17 18.1321 217.551 18.5352 218.042 18.8185C218.534 19.1019 219.116 19.2436 219.79 19.2436C220.237 19.2436 220.646 19.1806 221.018 19.0547C221.39 18.9287 221.708 18.7398 221.972 18.4879C222.237 18.236 222.438 17.9274 222.577 17.5622L226.298 17.8078C226.109 18.702 225.722 19.4829 225.137 20.1504C224.557 20.8117 223.808 21.3281 222.888 21.6996C221.975 22.0649 220.92 22.2475 219.724 22.2475Z" fill="white"/>
<path d="M230.434 7.46235V3.27959H232.458C232.752 3.27959 233.013 3.33626 233.24 3.44962C233.47 3.56297 233.648 3.72356 233.773 3.93137C233.901 4.13919 233.965 4.38857 233.965 4.67951C233.965 4.97423 233.899 5.2255 233.767 5.43331C233.635 5.63735 233.451 5.79416 233.217 5.90373C232.987 6.00953 232.72 6.06243 232.418 6.06243H231.058V5.24061H232.203C232.373 5.24061 232.511 5.19338 232.616 5.09892C232.722 5.00446 232.775 4.86465 232.775 4.67951C232.775 4.48681 232.722 4.347 232.616 4.2601C232.511 4.16942 232.375 4.12407 232.208 4.12407H231.579V7.46235H230.434ZM233.155 5.54667L234.079 7.46235H232.826L231.976 5.54667H233.155ZM232.095 9.95614C231.468 9.95614 230.88 9.83901 230.332 9.60474C229.784 9.37048 229.303 9.04553 228.887 8.6299C228.471 8.21427 228.147 7.73251 227.912 7.18463C227.678 6.63676 227.561 6.0492 227.561 5.42198C227.561 4.79475 227.678 4.2072 227.912 3.65932C228.147 3.11145 228.471 2.62969 228.887 2.21406C229.303 1.79843 229.784 1.47348 230.332 1.23921C230.88 1.00495 231.468 0.887817 232.095 0.887817C232.722 0.887817 233.31 1.00495 233.858 1.23921C234.406 1.47348 234.887 1.79843 235.303 2.21406C235.719 2.62969 236.044 3.11145 236.278 3.65932C236.512 4.2072 236.629 4.79475 236.629 5.42198C236.629 6.0492 236.512 6.63676 236.278 7.18463C236.044 7.73251 235.719 8.21427 235.303 8.6299C234.887 9.04553 234.406 9.37048 233.858 9.60474C233.31 9.83901 232.722 9.95614 232.095 9.95614ZM232.095 8.72058C232.707 8.72058 233.263 8.57322 233.761 8.2785C234.26 7.98 234.657 7.58137 234.952 7.08262C235.25 6.58386 235.399 6.03031 235.399 5.42198C235.399 4.81365 235.25 4.2601 234.952 3.76134C234.657 3.26258 234.258 2.86585 233.756 2.57112C233.257 2.27263 232.703 2.12338 232.095 2.12338C231.487 2.12338 230.933 2.27263 230.434 2.57112C229.936 2.86585 229.537 3.26258 229.238 3.76134C228.944 4.2601 228.796 4.81365 228.796 5.42198C228.796 6.03031 228.944 6.58386 229.238 7.08262C229.537 7.58137 229.936 7.98 230.434 8.2785C230.933 8.57322 231.487 8.72058 232.095 8.72058Z" fill="white"/>
</g>
</svg>
